# xmcd CD database file
#
# Track frame offsets:
#	150
#	8580
#	21950
#	33402
#	42727
#	51470
#	70967
#	82500
#	92022
#	97952
#	107765
#	114672
#
# Disc length: 1745 seconds
#
# Revision: 0
# Processed by: cddbd v1.5.1PL0 Copyright (c) Steve Scherf et al.
# Submitted via: CDex 1.51
#
DISCID=9206cf0c
DTITLE=Hanna Lam and Wim ter Burg - Alles wordt nieuw 1
DYEAR=1998
DGENRE=Jazz
TTITLE0=Jericho
TTITLE1=De dromen
TTITLE2=Jona ui de grote vis
TTITLE3=Samen delen
TTITLE4=De toren van Babel
TTITLE5=Het lied van Mozes en Mirjam
TTITLE6=Het lied van het begin
TTITLE7=De doortocht
TTITLE8=Zacheus
TTITLE9=Meisjes dwaas, meisjes wijs
TTITLE10=Noach
TTITLE11=Van de nieuwe hemel en de nieuwe aarde
EXTD=YEAR: 1998
EXTT0=
EXTT1=
EXTT2=
EXTT3=
EXTT4=
EXTT5=
EXTT6=
EXTT7=
EXTT8=
EXTT9=
EXTT10=
EXTT11=
PLAYORDER=
